<?xml version="1.0" standalone="no"?>
<!DOCTYPE svg PUBLIC "-//W3C//DTD SVG 20010904//EN"
 "http://www.w3.org/TR/2001/REC-SVG-20010904/DTD/svg10.dtd">
<svg version="1.0" xmlns="http://www.w3.org/2000/svg"
 width="40.000000pt" height="64.000000pt" viewBox="0 0 64.000000 64.000000"
 preserveAspectRatio="xMidYMid meet">

<g transform="translate(0.000000,64.000000) scale(0.100000,-0.100000)"
fill="#000000" stroke="none">
<path d="M25 615 l-25 -24 0 -271 0 -271 25 -24 c23 -24 29 -25 160 -25 l135
0 0 120 0 120 -45 0 -45 0 0 49 0 50 43 3 42 3 6 70 c7 86 12 99 54 125 23 14
50 20 94 20 l61 0 0 -45 c0 -43 -2 -45 -28 -45 -50 0 -72 -25 -72 -81 l0 -49
49 0 c47 0 48 -1 44 -27 -11 -73 -11 -73 -53 -73 l-40 0 0 -120 0 -120 80 0
c73 0 83 3 105 25 l25 24 0 271 0 271 -25 24 -24 25 -271 0 -271 0 -24 -25z"/>
</g>
</svg>
