<?xml version="1.0" standalone="no"?>
<!DOCTYPE svg PUBLIC "-//W3C//DTD SVG 20010904//EN"
 "http://www.w3.org/TR/2001/REC-SVG-20010904/DTD/svg10.dtd">
<svg version="1.0" xmlns="http://www.w3.org/2000/svg"
 width="40.000000pt" height="64.000000pt" viewBox="0 0 64.000000 64.000000"
 preserveAspectRatio="xMidYMid meet">

<g transform="translate(0.000000,64.000000) scale(0.100000,-0.100000)"
fill="#000000" stroke="none">
<path d="M25 615 l-25 -24 0 -271 0 -271 25 -24 24 -25 271 0 271 0 24 25 25
24 0 271 0 271 -25 24 -24 25 -271 0 -271 0 -24 -25z m462 -101 c43 -32 55
-82 51 -216 -3 -100 -6 -121 -24 -145 -32 -43 -82 -55 -216 -51 -100 3 -121 6
-145 24 -43 32 -55 82 -51 216 5 180 28 200 235 195 105 -2 125 -5 150 -23z"/>
<path d="M190 488 c-43 -23 -51 -53 -48 -180 3 -107 5 -120 26 -140 21 -22 31
-23 152 -23 121 0 131 1 152 23 22 21 23 31 23 152 0 121 -1 131 -23 152 -20
21 -33 23 -140 26 -81 2 -125 -1 -142 -10z m268 -51 c4 -20 -25 -34 -40 -19
-15 15 -1 44 19 40 10 -2 19 -11 21 -21z m-62 -41 c28 -28 34 -42 34 -76 0
-34 -6 -48 -34 -76 -48 -48 -104 -48 -152 0 -28 28 -34 42 -34 76 0 60 50 110
110 110 34 0 48 -6 76 -34z"/>
<path d="M270 370 c-43 -43 -11 -120 50 -120 17 0 39 9 50 20 11 11 20 33 20
50 0 17 -9 39 -20 50 -11 11 -33 20 -50 20 -17 0 -39 -9 -50 -20z"/>
</g>
</svg>
