<?xml version="1.0" standalone="no"?>
<!DOCTYPE svg PUBLIC "-//W3C//DTD SVG 20010904//EN"
 "http://www.w3.org/TR/2001/REC-SVG-20010904/DTD/svg10.dtd">
<svg version="1.0" xmlns="http://www.w3.org/2000/svg"
 width="40.000000pt" height="64.000000pt" viewBox="0 0 64.000000 64.000000"
 preserveAspectRatio="xMidYMid meet">

<g transform="translate(0.000000,64.000000) scale(0.100000,-0.100000)"
fill="#000000" stroke="none">
<path d="M25 615 l-25 -24 0 -271 0 -271 25 -24 24 -25 271 0 271 0 24 25 25
24 0 271 0 271 -25 24 -24 25 -271 0 -271 0 -24 -25z m441 -156 c3 -6 19 -9
35 -5 31 6 37 -2 17 -23 -11 -11 -8 -12 12 -6 l25 7 -21 -23 c-11 -13 -26 -49
-33 -79 -37 -171 -186 -259 -347 -203 l-49 17 42 7 c23 4 52 13 63 19 21 11
20 12 -11 33 -38 26 -48 47 -22 47 15 1 14 3 -6 14 -22 12 -50 50 -51 69 0 4
7 7 15 7 14 0 14 3 0 30 -17 33 -19 49 -5 70 8 12 14 10 37 -12 28 -27 74 -50
124 -62 24 -5 27 -2 33 26 10 51 42 78 92 78 24 0 46 -5 50 -11z"/>
</g>
</svg>
